<svg width="14" height="14" viewBox="0 0 14 14" fill="none" xmlns="http://www.w3.org/2000/svg">
<path d="M2.22222 13.1313H11.1111C11.7005 13.1313 12.2657 12.9238 12.6825 12.5544C13.0992 12.185 13.3333 11.684 13.3333 11.1616V3.28283C13.3333 2.93457 13.1773 2.60056 12.8994 2.3543C12.6216 2.10804 12.2448 1.9697 11.8519 1.9697H10.3704V0.656566C10.3704 0.482434 10.2923 0.315434 10.1534 0.192304C10.0145 0.0691737 9.82609 0 9.62963 0C9.43318 0 9.24477 0.0691737 9.10585 0.192304C8.96693 0.315434 8.88889 0.482434 8.88889 0.656566V1.9697H4.44445V0.656566C4.44445 0.482434 4.3664 0.315434 4.22749 0.192304C4.08857 0.0691737 3.90016 0 3.70371 0C3.50725 0 3.31884 0.0691737 3.17992 0.192304C3.04101 0.315434 2.96296 0.482434 2.96296 0.656566V1.9697H1.48148C1.08857 1.9697 0.711748 2.10804 0.433916 2.3543C0.156084 2.60056 0 2.93457 0 3.28283V11.1616C0 11.684 0.234126 12.185 0.650874 12.5544C1.06762 12.9238 1.63285 13.1313 2.22222 13.1313ZM1.48148 6.89394C1.48148 6.80688 1.5205 6.72337 1.58996 6.66181C1.65942 6.60024 1.75362 6.56566 1.85185 6.56566H11.4815C11.5797 6.56566 11.6739 6.60024 11.7434 6.66181C11.8128 6.72337 11.8519 6.80688 11.8519 6.89394V11.1616C11.8519 11.3358 11.7738 11.5028 11.6349 11.6259C11.496 11.749 11.3076 11.8182 11.1111 11.8182H2.22222C2.02577 11.8182 1.83736 11.749 1.69844 11.6259C1.55952 11.5028 1.48148 11.3358 1.48148 11.1616V6.89394Z" fill="#201E1E"/>
</svg>
