<?xml version="1.0" encoding="utf-8"?>
<!-- Generator: Adobe Illustrator 25.0.0, SVG Export Plug-In . SVG Version: 6.00 Build 0)  -->
<svg version="1.1" id="Layer_1" xmlns="http://www.w3.org/2000/svg" xmlns:xlink="http://www.w3.org/1999/xlink" x="0px" y="0px"
	 viewBox="0 0 324 80" style="enable-background:new 0 0 324 80;" xml:space="preserve">
<style type="text/css">
	.st0{fill:#201E1E;}
	.st1{fill:#231F20;}
</style>
<path class="st0" d="M29.6,80h-3.4c-0.1,0-0.2-0.1-0.3-0.1c-1-0.1-2.1-0.2-3.1-0.4c-3.9-0.7-7.5-2.2-10.7-4.5
	c-3.2-2.2-5.9-5-7.9-8.3c-2.1-3.3-3.4-7.1-3.9-11c-0.1-0.7-0.2-1.3-0.2-2V26.2c0-0.1,0.1-0.2,0.1-0.4c0.2-1.2,0.3-2.4,0.5-3.6
	c1.2-5.7,3.9-10.6,8.2-14.6c4.6-4.4,10.2-6.9,16.5-7.5c0.4,0,0.9-0.1,1.3-0.1h2.5c0.1,0,0.3,0.1,0.4,0.1c3,0.2,6,0.8,8.7,2
	c6.4,2.6,11.2,7,14.4,13.1c1.5,2.8,2.4,5.9,2.8,9.1c0.1,0.6,0.2,1.2,0.2,1.8V54c0,0.1-0.1,0.2-0.1,0.3c-0.1,0.9-0.2,1.8-0.3,2.7
	c-0.7,4.3-2.5,8.4-5.2,11.9c-2.5,3.4-5.8,6.1-9.5,8c-2.9,1.5-6,2.5-9.2,2.9L29.6,80z M54.5,40V27.6c0-1.7-0.2-3.3-0.5-5
	c-1.1-5.5-3.7-10.3-7.8-14.1c-6.4-6-14.1-8.3-22.8-7C17.6,2.4,12.6,5.1,8.6,9.4c-4.9,5.2-7.4,11.4-7.5,18.5c0,8.1,0,16.2,0,24.4
	c0,0.8,0,1.7,0.1,2.5c0.3,3.4,1.3,6.6,2.8,9.6c2.4,4.5,5.7,8.1,10.1,10.7c3.6,2.2,7.5,3.4,11.7,3.7c2.9,0.2,5.9,0,8.7-0.8
	c5.9-1.6,10.7-4.8,14.4-9.6c3.6-4.7,5.5-10.1,5.5-16.1C54.6,48.2,54.5,44.1,54.5,40z"/>
<path class="st0" d="M27.7,7.7c0-0.3,0-0.5,0-0.7c0-0.6,0-1.1,0-1.6s-0.2-0.7-0.6-0.7s-0.6,0.2-0.6,0.6c0,0.6,0,1.1,0,1.7l0,0
	c0,0.2,0,0.4,0,0.6v0.2h-0.7c0-0.3,0-0.6,0-0.8l0,0c0-0.7,0-1.3,0-2c0-0.6,0.5-0.9,1.2-1c0.6,0,1.1,0.3,1.3,0.8
	c0,0.1,0.1,0.2,0.1,0.3c0,0.6,0,1.1,0,1.7l0,0l0,0c0,0.3,0,0.6,0,0.9L27.7,7.7z"/>
<path class="st0" d="M31.9,5.7h0.6c0.1-0.8-0.5-1.5-1.4-1.5c-0.7,0-1.1,0.3-1.3,0.8c-0.2,0.6,0.1,1,0.7,1.3c0.1,0,0.2,0.1,0.3,0.1
	c0.2,0.1,0.3,0.1,0.4,0.2s0.3,0.3,0.2,0.4c-0.1,0.1-0.3,0.3-0.4,0.3c-0.2,0-0.5-0.1-0.6-0.3c-0.2-0.5-0.4-0.4-0.8-0.3l0,0
	c0.1,0.7,0.5,1.1,1.1,1.2s1.2-0.1,1.4-0.7c0.2-0.5,0-0.9-0.6-1.2c-0.2,0-0.4-0.1-0.5-0.2c-0.1,0-0.2-0.1-0.2-0.1
	c-0.2-0.1-0.4-0.3-0.3-0.6c0.1-0.3,0.3-0.3,0.6-0.3C31.5,4.8,31.8,5.1,31.9,5.7z"/>
<path class="st0" d="M14.2,8.9l1.7-1.1l0.5,0.8l-1.3,0.8l0.3,0.5l1.3-0.8l0.4,0.7L15.5,11l0.3,0.5l2.3-1.4c-0.7-1-1.3-2.1-2-3.1
	l-2.3,1.4L14.2,8.9z"/>
<path class="st0" d="M38.7,52.9c-0.2-0.1-0.4-0.2-0.7-0.3c-0.5-0.2-0.9-0.4-1.4-0.6c-1.2-0.4-2.5-0.3-3.7-0.2c-0.2,0-0.5,0-0.7,0.1
	l0,0c-1.5,0.1-3,0.3-4.6,0.3c-3,0-5.9,0-8.9,0c-1.2,0-2.4,0-3.6,0h-0.5v-0.5c0.1,0,0.2,0,0.4,0l0,0l0,0c0.3,0,0.5-0.1,0.8-0.1
	c1.7-0.3,2.5-1.3,2.7-3c0-0.3,0-0.7,0-1V28.3c0-0.7-0.1-1.4-0.4-2.1c-0.5-1.1-1.5-1.5-2.6-1.6c-0.2,0-0.4,0-0.6-0.1
	c-0.1,0-0.2,0-0.3,0V24h13.1v0.5c-0.1,0-0.1,0-0.2,0s-0.3,0-0.4,0.1c-1.4,0.2-2.2,1-2.4,2.4c-0.1,0.4-0.1,0.8-0.1,1.2
	c0,6.5,0,13,0,19.5c0,0.8,0.1,1.6,0.5,2.3c0.7,1.2,2.6,1.6,4,1c0.8-0.4,1.4-1,2-1.6c0.5-0.5,0.9-1.1,1.4-1.7c0.4-0.5,0.8-1,1.2-1.5
	c1.2-1.4,2.5-2.7,4.2-3.4c1-0.4,2-0.6,3.1-0.7c0.3,0,0.4,0.1,0.2,0.4c-1.4,2.6-1.9,5.4-2.3,8.3c-0.1,0.5-0.1,1-0.1,1.6l0,0
	C38.7,52.5,38.7,52.7,38.7,52.9z"/>
<path class="st0" d="M7.5,35.4V38H6.9v-2H6.1v1.5H5.5V36h-1v2H3.9v-1.3c0-0.1,0-0.2,0-0.3c0-0.3,0-0.5,0-0.8c0-0.1,0.1-0.3,0.2-0.3
	c0.9,0,1.9,0,2.8,0l0,0C7.1,35.4,7.3,35.4,7.5,35.4z"/>
<path class="st0" d="M48.2,45.2h3.6v-2.6h-0.6v2h-1V43h-0.6v1.5h-0.9v-2h-0.6L48.2,45.2L48.2,45.2z"/>
<path class="st0" d="M38,70.4l0.4,0.7l1.3-0.8l0.3,0.5l-1.3,0.8c0.2,0.3,0.3,0.5,0.5,0.8l1.7-1l0.3,0.5L39,73.3l-1.9-3.1l2.3-1.4
	l0.3,0.5L38,70.4z"/>
<path class="st0" d="M45.2,12.4l0.5-0.4l1.7,2.1l-2.9,2.3l-1.7-2.1l0.1-0.1c0.1-0.1,0.3-0.2,0.4-0.3l1.2,1.5l0.7-0.5l-1-1.2l0.5-0.4
	l1,1.2l0.7-0.6c-0.3-0.3-0.5-0.7-0.8-1L45.2,12.4z"/>
<path class="st0" d="M13.2,66.1l-1.7-2l-2.8,2.4l1.7,2l0.5-0.4l-1.3-1.5l0.7-0.6c0.2,0.3,0.5,0.5,0.7,0.8l0.3,0.4l0.5-0.4l-1-1.2
	l0.7-0.5l1.3,1.5L13.2,66.1z"/>
<path class="st0" d="M22.7,74.3h0.6c0.2,0.7,0.5,0.9,1,0.9c0.1,0,0.2-0.1,0.3-0.1c0.1-0.1,0.2-0.1,0.2-0.2c0.1-0.2,0-0.4-0.2-0.5
	c-0.1-0.1-0.3-0.2-0.4-0.2c-0.1-0.1-0.3-0.2-0.4-0.2c-0.5-0.3-0.6-0.6-0.6-1c0.1-0.5,0.5-0.8,1-0.8c0.8-0.1,1.5,0.5,1.5,1.3H25
	c0-0.1-0.1-0.2-0.1-0.3c-0.1-0.3-0.4-0.4-0.7-0.4c-0.2,0-0.3,0.2-0.4,0.3c0,0.1,0.1,0.3,0.2,0.4c0.2,0.1,0.3,0.2,0.5,0.3
	c0.2,0.1,0.4,0.2,0.5,0.3c0.5,0.3,0.6,0.9,0.3,1.4c0,0.1-0.1,0.2-0.2,0.2c-0.4,0.3-1.1,0.4-1.7,0.1C22.9,75.4,22.6,74.9,22.7,74.3z"
	/>
<path class="st0" d="M48.9,60.5v0.2c0.2,0,0.5,0,0.7,0c0.2-0.1,0.4-0.2,0.6-0.3c0.2-0.2,0.3-0.4,0.4-0.6c0.1-0.2,0.1-0.5,0.1-0.7
	c-0.1-0.6-0.4-0.9-0.9-1c-0.4-0.1-0.7,0.1-0.9,0.3c-0.1,0.1-0.2,0.3-0.3,0.4c-0.1,0.2-0.2,0.3-0.4,0.5c-0.1,0.1-0.3,0.2-0.4,0.1
	c-0.1,0-0.1-0.1-0.2-0.2c0-0.1-0.1-0.2-0.1-0.2c0-0.3,0.2-0.5,0.5-0.6c0.1,0,0.2,0,0.3-0.1h0.1c0-0.1,0-0.2,0-0.3l0,0
	c0-0.1,0-0.2,0-0.2c-0.8-0.2-1.5,0.5-1.5,1.3c0,0.5,0.2,0.9,0.6,1c0.4,0.2,0.8,0,1.1-0.3c0.1-0.1,0.2-0.3,0.4-0.5
	c0.1-0.1,0.1-0.2,0.2-0.3c0.2-0.2,0.3-0.4,0.6-0.2s0.3,0.4,0.2,0.7c-0.1,0.5-0.5,0.7-1,0.6C49,60.3,49,60.4,48.9,60.5z"/>
<path class="st0" d="M5.1,50.5c0,0.1,0,0.2,0.1,0.3l0,0c0,0.1,0,0.2,0,0.2c-0.5,0.2-0.8,0.5-0.8,1c0,0.2,0.1,0.4,0.4,0.5
	c0.3,0,0.4-0.1,0.5-0.3c0.1-0.1,0.1-0.3,0.1-0.4c0.1-0.2,0.1-0.4,0.2-0.5c0.2-0.5,0.5-0.7,0.9-0.6c0.4,0,0.8,0.3,0.9,0.8
	c0.2,0.8-0.2,1.6-1,1.7c0-0.2-0.1-0.4-0.1-0.6c0.1-0.1,0.2-0.1,0.3-0.2C7,52.2,7.1,52,6.9,51.6c-0.1-0.1-0.2-0.3-0.3-0.3
	c-0.1,0-0.3,0.1-0.3,0.2c-0.1,0.2-0.1,0.3-0.2,0.5C6,52.3,6,52.5,5.9,52.6C5.7,53,5.4,53.3,5,53.3c-0.7,0-1.1-0.4-1.2-1.2
	C3.7,51.5,4.1,50.6,5.1,50.5z"/>
<path class="st0" d="M50.6,29.9L50.6,29.9c0-0.1-0.1-0.3-0.1-0.4c0.5-0.1,0.8-0.4,0.8-1c0-0.2-0.1-0.5-0.4-0.5
	c-0.3-0.1-0.4,0.1-0.5,0.3c-0.1,0.1-0.1,0.3-0.1,0.4l0,0c-0.1,0.2-0.1,0.4-0.2,0.6c-0.2,0.4-0.4,0.6-0.9,0.6c-0.4,0-0.8-0.2-0.9-0.7
	c-0.3-0.8,0.1-1.6,1-1.9c0,0.1,0,0.2,0.1,0.2l0,0l0,0c0,0.1,0.1,0.2,0.1,0.3c-0.1,0.1-0.2,0.1-0.3,0.2c-0.3,0.2-0.4,0.5-0.2,0.8
	c0,0.1,0.1,0.1,0.2,0.2c0.1,0,0.1,0.1,0.2,0.1c0.1,0,0.3-0.1,0.3-0.2c0.1-0.2,0.1-0.3,0.2-0.5l0,0c0-0.1,0-0.2,0.1-0.2
	c0.3-0.7,0.7-1.1,1.3-0.9c0.6,0.1,0.9,0.7,0.9,1.4c-0.1,0.8-0.4,1.1-1.3,1.3C50.6,30,50.6,30,50.6,29.9z"/>
<path class="st0" d="M7.2,22.2l-0.1,0.6c0.6,0.1,1.1-0.1,1.3-0.7c0.3-0.5,0.2-1.1-0.2-1.5c-0.4-0.4-0.9-0.4-1.2-0.1
	c-0.2,0.1-0.3,0.3-0.4,0.5c-0.1,0.1-0.1,0.1-0.1,0.2c-0.1,0.1-0.2,0.2-0.3,0.3c-0.1,0.1-0.3,0.2-0.5,0.1c-0.1,0-0.1-0.1-0.2-0.2
	s-0.1-0.2-0.1-0.2c-0.1-0.4,0.2-0.8,0.7-0.9c0.1,0,0.2,0,0.3,0h0.1v-0.6c-1.2-0.2-1.8,0.9-1.7,1.7c0,0.4,0.3,0.8,0.7,0.9
	c0.4,0.1,0.8,0,1.1-0.3c0.2,0,0.3-0.2,0.4-0.3c0.1-0.1,0.2-0.2,0.3-0.4l0,0c0.1-0.1,0.2-0.3,0.5-0.2C8,21.3,8.1,21.5,8,21.7
	c-0.1,0.2-0.3,0.3-0.5,0.4C7.4,22.2,7.3,22.3,7.2,22.2L7.2,22.2z"/>
<path class="st0" d="M29.3,72.4h-0.6c0,0.1,0,0.1,0,0.2s0,0.2,0,0.3c0,0.2,0,0.4,0,0.6c0,0.5,0,0.9,0,1.4c0,0.4-0.2,0.6-0.6,0.6
	s-0.6-0.2-0.6-0.6c0-0.3,0-0.5,0-0.8v-1.7l-0.7,0.1c0,0.1,0,0.1,0,0.2c0,0.2,0,0.4,0,0.6c0,0.6,0,1.1,0,1.7c0,0.9,0.5,1.3,1.3,1.3
	s1.2-0.5,1.3-1.3c0-0.5,0-0.9,0-1.4c0-0.2,0-0.3,0-0.5c0-0.1,0-0.2,0-0.3C29.3,72.5,29.3,72.4,29.3,72.4z"/>
<path class="st0" d="M48.1,26.3v-0.1l0,0l0,0c0-0.2,0-0.3-0.1-0.5c0.2,0,0.5-0.1,0.7-0.1l0,0l0,0l0,0l0,0c0.5-0.1,1.1-0.2,1.6-0.2
	c0.5-0.1,0.7-0.3,0.7-0.7c0-0.4-0.2-0.6-0.6-0.6c-0.5,0-1,0.1-1.5,0.2c-0.2,0-0.4,0.1-0.6,0.1c-0.1,0-0.1,0-0.2,0c0,0-0.1,0-0.2,0
	c0-0.1,0-0.3-0.1-0.4v-0.3c0.3,0,0.6-0.1,0.8-0.1c0.6-0.1,1.2-0.2,1.8-0.2s1.1,0.4,1.2,1c0.1,0.7-0.1,1.2-0.7,1.4
	c-0.5,0.1-1,0.2-1.5,0.3c-0.2,0-0.4,0.1-0.6,0.1c-0.2,0-0.3,0-0.5,0.1C48.3,26.3,48.2,26.3,48.1,26.3z"/>
<path class="st0" d="M7.5,26.7L7.6,26H7.5l0,0c-0.1,0-0.2,0-0.3,0c-0.2,0-0.4-0.1-0.6-0.1l0,0l0,0c-0.5-0.1-1-0.1-1.5-0.2
	s-0.6-0.4-0.5-0.8c0.1-0.3,0.4-0.5,0.9-0.4l2.3,0.3c0-0.2,0.1-0.4,0.1-0.7C7.6,24,7.3,24,7.1,24c-0.6-0.1-1.2-0.2-1.7-0.2
	c-0.7-0.1-1.2,0.3-1.3,1c-0.1,0.7,0.2,1.3,0.8,1.5c0.6,0.1,1.2,0.2,1.8,0.3C7,26.6,7.3,26.6,7.5,26.7z"/>
<path class="st0" d="M47.7,56.5c0-0.1,0-0.3,0.1-0.4c0-0.1,0-0.2,0-0.2h0.3l0,0l0,0c0.3,0,0.6,0.1,1,0.1c0.1,0,0.3,0,0.4,0.1l0,0
	c0.2,0,0.4,0.1,0.7,0.1c0.5,0.1,0.8-0.1,0.8-0.5c0.1-0.4-0.1-0.7-0.6-0.7c-0.5-0.1-1-0.2-1.5-0.2c-0.2,0-0.4-0.1-0.6-0.1h-0.1h-0.1
	c0-0.1,0-0.2,0-0.3l0.1-0.3c0.2,0,0.4,0.1,0.6,0.1c0.4,0.1,0.8,0.1,1.3,0.2c0.2,0,0.5,0.1,0.7,0.1c0.7,0.2,1,0.7,0.9,1.4
	s-0.6,1.2-1.3,1.1c-0.6-0.1-1.2-0.1-1.8-0.2C48.2,56.6,48,56.5,47.7,56.5z"/>
<path class="st0" d="M7.9,56.1L7.9,56.1c-0.3,0-0.5,0-0.8,0.1l0,0H7c-0.2,0-0.3,0.1-0.5,0.1c-0.4,0.1-0.8,0.1-1.1,0.2
	c-0.4,0-0.6-0.2-0.7-0.5s0.1-0.6,0.4-0.7c0.1,0,0.3-0.1,0.4-0.1C6.1,55.1,6.5,55,7,55c0.2,0,0.5-0.1,0.7-0.1v-0.2l0,0l0,0
	c0-0.1,0-0.3-0.1-0.4c-0.3,0.1-0.6,0.1-0.8,0.2c-0.6,0.1-1.3,0.2-1.9,0.4S4,55.7,4.2,56.4c0.1,0.6,0.6,1.1,1.2,1
	C6,57.1,6.6,57,7.2,56.9l0,0c0.3,0,0.5-0.1,0.8-0.1C8,56.5,8,56.4,7.9,56.1z"/>
<path class="st0" d="M7.5,30.2H6.9v-0.9H4.5v0.9H3.9v-2.4h0.6v0.3c0,0.2,0,0.3,0,0.5h2.4v-0.8h0.6V30.2z"/>
<path class="st0" d="M48.7,52.8V52h2.4v0.5c0,0.1,0,0.2,0,0.4h0.6v-2.4h-0.6c0,0.3,0,0.6,0,0.8h-2.4v-0.8h-0.6v2.4h0.6V52.8z"/>
<path class="st0" d="M22.7,5.2l-0.9,0.2c0-0.2-0.1-0.4-0.1-0.6l2.4-0.5c0,0.1,0,0.1,0,0.2l0,0c0,0.1,0.1,0.2,0.1,0.4l-0.9,0.2
	l0.5,2.3l0.9-0.1l0.1,0.6l-2.4,0.5c0-0.2-0.1-0.4-0.2-0.6l0.9-0.2C23,6.8,22.8,6,22.7,5.2z"/>
<path class="st0" d="M30.5,72.8l0.9-0.1c0.1,0.5,0.2,1,0.3,1.5l0,0c0,0.3,0.1,0.5,0.1,0.8l-0.9,0.2c0,0.2,0.1,0.4,0.1,0.6l2.4-0.5
	c0-0.2-0.1-0.3-0.1-0.4v-0.1v-0.1l-0.9,0.1c-0.1-0.3-0.1-0.6-0.2-1c-0.1-0.5-0.2-0.9-0.3-1.4l0.9-0.2c0-0.1-0.1-0.3-0.1-0.4v-0.2
	l-2.4,0.5C30.4,72.5,30.4,72.6,30.5,72.8z"/>
<path class="st0" d="M47.8,21.7l0.1,0.3c0.1,0.2,0.1,0.4,0.2,0.6l-0.6,0.2l-0.8-2.3l0.6-0.2l0.3,0.8l2.3-0.7l-0.2-0.8l0.6-0.2
	l0.2,0.5c0.2,0.6,0.4,1.2,0.6,1.8l-0.6,0.2L50.1,21L47.8,21.7z"/>
<path class="st0" d="M7.7,58L8,58.8l-2.2,0.8l-0.3-0.8L4.9,59l0.8,2.3l0.6-0.2L6,60.3l2.3-0.8l0.3,0.8l0.6-0.2
	c-0.2-0.5-0.3-0.9-0.5-1.3c-0.1-0.3-0.2-0.6-0.3-1L7.7,58z"/>
<path class="st0" d="M48.8,48.1v1.1h-0.6v-2.9h0.6v1.1h1c0.2,0,0.3,0,0.5,0c0.4,0,0.8,0,1.2,0c0.3,0,0.3,0.1,0.3,0.3c0,0,0,0,0,0.1
	c0,0.2,0,0.3-0.3,0.3c-0.5,0-1,0-1.5,0l0,0c-0.3,0-0.5,0-0.8,0L48.8,48.1z"/>
<path class="st0" d="M48.1,36.9v0.6c0.3,0,0.5,0,0.8,0l0,0c0.8,0,1.7,0,2.5,0c0.3,0,0.4-0.1,0.4-0.4c0-0.7,0-1.4,0-2
	c0-0.2,0-0.4-0.3-0.4s-0.3,0.2-0.3,0.4c0,0.4,0,0.8,0,1.1l0,0c0,0.2,0,0.4,0,0.6h-3.1V36.9z"/>
<path class="st0" d="M11,63.4l-0.5,0.3l-0.6-1l-2.6,1.5L7,63.6l2.6-1.5c-0.2-0.3-0.4-0.6-0.6-1l0.5-0.3l0.2,0.3l0,0l0,0
	C10.1,62,10.5,62.7,11,63.4z"/>
<path class="st0" d="M46.9,19.3l-0.5-1l2.7-1.4l-0.3-0.6l-2.6,1.4l-0.6-1L45,17c0.5,0.9,0.9,1.7,1.4,2.6L46.9,19.3z"/>
<path class="st0" d="M4.5,45.7H3.9V43h3.6v0.6h-3V45.7z"/>
<path class="st0" d="M18.8,9.7l2.8-1.1c-0.1-0.2-0.2-0.4-0.3-0.6l-1.1,0.4l-1.1-2.8l-0.6,0.3l1.1,2.8l-1.1,0.4L18.8,9.7z"/>
<path class="st0" d="M6.9,32.5v-1.1h0.6v2.9H6.9v-1.1h-3v-0.7H6.9z"/>
<path class="st0" d="M33.8,72.2l1.1-0.4l1.1,2.8l0.6-0.2l-1.1-2.8l1.1-0.4c-0.1-0.2-0.1-0.4-0.2-0.6l-2.8,1.1
	C33.7,71.8,33.7,72,33.8,72.2z"/>
<path class="st0" d="M16.6,69l0.6,0.3L15.7,72l1.8,1.1l-0.3,0.5l-2.4-1.4L16.6,69z"/>
<path class="st0" d="M12.6,14.6l-2.9-2.2c-0.6,0.7-1.1,1.5-1.7,2.2L8.5,15l1.3-1.7l2.4,1.8L12.6,14.6z"/>
<path class="st0" d="M45.5,67.2c0.3-0.4,0.6-0.8,1-1.2l0.4-0.5l0.5,0.4L45.7,68l-2.8-2.3l0.4-0.5L45.5,67.2z"/>
<path class="st0" d="M38.6,10.7l1.7-3.2l-2.4-1.3c-0.1,0.2-0.2,0.4-0.3,0.5l1.8,1C39.3,8,39.2,8.3,39,8.6c-0.3,0.6-0.7,1.2-1,1.8
	L38.6,10.7z"/>
<g>
	<path class="st1" d="M78.6,41.8h-8.1v5.6h9.7v3.4H66.2V30h13.9v3.4h-9.7v4.9h8.1V41.8z"/>
	<path class="st1" d="M87.6,45.7l2.9-10.3h4.2l-5.1,15.4h-3.9l-5.3-15.4h4.2L87.6,45.7z"/>
	<path class="st1" d="M103.5,51c-2.2,0-4.1-0.7-5.6-2c-1.5-1.4-2.2-3.2-2.2-5.6V43c0-1.5,0.3-2.9,0.8-4.1c0.5-1.2,1.5-2.2,2.5-2.9
		c1-0.7,2.4-1,3.7-1c2,0,3.7,0.7,4.9,2c1.2,1.4,1.9,3.2,1.9,5.6v1.7h-9.8c0.2,1,0.5,1.9,1.2,2.4c0.7,0.7,1.5,0.8,2.5,0.8
		c1.5,0,2.9-0.5,3.7-1.7l2,2.2c-0.7,0.8-1.5,1.5-2.5,2C105.9,50.8,104.7,51,103.5,51z M103,38.5c-0.8,0-1.5,0.3-2,0.8
		c-0.5,0.5-0.8,1.4-1,2.4h5.8v-0.3c0-0.8-0.3-1.7-0.7-2.2C104.5,38.6,103.8,38.5,103,38.5z"/>
	<path class="st1" d="M115.9,35.4l0.2,1.7c1-1.4,2.5-2,4.4-2c1.7,0,2.9,0.5,3.6,1.4c0.8,1,1.2,2.4,1.2,4.2v10h-4.1v-9.8
		c0-0.8-0.2-1.5-0.5-1.9s-1-0.5-1.9-0.5c-1.2,0-2,0.5-2.5,1.5v10.8h-4.1V35.4C112.1,35.4,115.9,35.4,115.9,35.4z"/>
	<path class="st1" d="M133.3,31.5v3.7h2.7v3.1h-2.7v7.6c0,0.5,0.2,1,0.3,1.2c0.2,0.2,0.7,0.3,1.2,0.3c0.5,0,0.8,0,1.2-0.2v3.1
		c-0.8,0.2-1.7,0.3-2.5,0.3c-2.9,0-4.4-1.5-4.4-4.4v-8.3h-2.2v-3.1h2.2v-3.7h4.2V31.5z"/>
	<path class="st1" d="M153.5,43.2h-3.4v7.6h-4.2V30h7.6c2.4,0,4.4,0.5,5.6,1.7c1.4,1,2,2.7,2,4.6c0,1.4-0.3,2.5-0.8,3.6
		c-0.7,1-1.5,1.7-2.7,2.2l4.4,8.5v0.2h-4.6L153.5,43.2z M150.1,39.6h3.4c1,0,1.9-0.3,2.5-0.8c0.5-0.5,0.8-1.4,0.8-2.2
		c0-1-0.3-1.7-0.8-2.4c-0.5-0.5-1.4-0.8-2.5-0.8h-3.4V39.6z"/>
	<path class="st1" d="M175.2,45.4c0-0.8-0.3-1.4-0.8-1.9c-0.5-0.5-1.5-0.8-3.1-1.4s-2.7-1-3.6-1.4c-2.4-1.4-3.6-3.1-3.6-5.1
		c0-1.2,0.3-2,1-3.1c0.7-0.8,1.5-1.5,2.7-2c1.2-0.5,2.5-0.7,3.9-0.7c1.5,0,2.9,0.3,3.9,0.8c1.2,0.5,2,1.4,2.7,2.2c0.7,0.8,1,2,1,3.4
		h-4.2c0-1-0.3-1.7-0.8-2.2c-0.7-0.5-1.4-0.8-2.5-0.8c-1,0-1.9,0.2-2.4,0.7c-0.5,0.5-0.8,1-0.8,1.7c0,0.7,0.3,1.2,1,1.7
		c0.7,0.5,1.7,0.8,3.1,1.4c2.4,0.7,4.2,1.7,5.3,2.7c1.2,1,1.7,2.4,1.7,4.1c0,1.9-0.7,3.2-2,4.2c-1.4,1-3.2,1.5-5.4,1.5
		c-1.5,0-3.1-0.3-4.4-0.8c-1.4-0.5-2.4-1.4-3.1-2.4c-0.7-1-1-2.2-1-3.6h4.2c0,2.2,1.4,3.4,4.1,3.4c1,0,1.9-0.2,2.4-0.7
		C174.9,46.6,175.2,46.1,175.2,45.4z"/>
	<path class="st1" d="M189.9,45.6l4.7-15.6h4.7l-7.3,20.7h-4.4L180.6,30h4.7L189.9,45.6z"/>
	<path class="st1" d="M205.7,43.5v7.3h-4.2V30h8.1c1.5,0,2.9,0.3,4.1,0.8c1.2,0.5,2,1.4,2.7,2.4c0.7,1,1,2.2,1,3.6
		c0,2-0.7,3.6-2,4.7c-1.4,1.2-3.4,1.7-5.8,1.7h-3.9V43.5z M205.7,40h3.7c1.2,0,2-0.3,2.5-0.8c0.5-0.5,0.8-1.4,0.8-2.2
		c0-1-0.3-1.9-0.8-2.5c-0.7-0.7-1.4-1-2.5-1h-3.9V40H205.7z"/>
	<path class="st1" d="M238.2,45.4c0-0.8-0.3-1.4-0.8-1.9c-0.5-0.5-1.5-0.8-3.1-1.4s-2.7-1-3.6-1.4c-2.4-1.4-3.6-3.1-3.6-5.1
		c0-1.2,0.3-2,1-3.1c0.7-0.8,1.5-1.5,2.7-2c1.2-0.5,2.5-0.7,3.9-0.7c1.5,0,2.9,0.3,3.9,0.8c1.2,0.5,2,1.4,2.7,2.2s1,2,1,3.4h-4.2
		c0-1-0.3-1.7-0.8-2.2c-0.7-0.5-1.4-0.8-2.5-0.8c-1,0-1.9,0.2-2.4,0.7c-0.5,0.5-0.8,1-0.8,1.7c0,0.7,0.3,1.2,1,1.7
		c0.7,0.5,1.7,0.8,3.1,1.4c2.4,0.7,4.2,1.7,5.3,2.7c1.2,1,1.7,2.4,1.7,4.1c0,1.9-0.7,3.2-2,4.2c-1.4,1-3.2,1.5-5.4,1.5
		c-1.5,0-3.1-0.3-4.4-0.8c-1.4-0.5-2.4-1.4-3.1-2.4c-0.7-1-1-2.2-1-3.6h4.2c0,2.2,1.4,3.4,4.1,3.4c1,0,1.9-0.2,2.4-0.7
		C237.9,46.6,238.2,46.1,238.2,45.4z"/>
	<path class="st1" d="M250.8,44.9l2.9-9.7h4.4L251.8,53l-0.3,0.8c-0.8,2-2.4,3.1-4.6,3.1c-0.7,0-1.2-0.2-1.9-0.3v-3.1h0.7
		c0.8,0,1.4-0.2,1.7-0.3c0.3-0.2,0.7-0.7,0.8-1.2l0.5-1.2l-5.4-15.4h4.4L250.8,44.9z"/>
	<path class="st1" d="M268.1,46.6c0-0.5-0.2-0.8-0.7-1.2c-0.5-0.3-1.4-0.5-2.4-0.8c-3.7-0.8-5.4-2.4-5.4-4.7c0-1.4,0.5-2.5,1.7-3.4
		s2.5-1.4,4.4-1.4c2,0,3.6,0.5,4.7,1.4c1.2,0.8,1.7,2,1.7,3.6h-4.1c0-0.5-0.2-1-0.5-1.5s-1-0.5-1.7-0.5c-0.7,0-1.2,0.2-1.5,0.5
		c-0.3,0.3-0.5,0.7-0.5,1.2s0.2,0.8,0.7,1.2s1.2,0.5,2.2,0.7c1,0.2,1.9,0.5,2.5,0.7c2.2,0.8,3.2,2.2,3.2,4.1c0,1.4-0.7,2.5-1.9,3.4
		c-1.2,0.8-2.7,1.4-4.7,1.4c-1.4,0-2.4-0.2-3.4-0.7s-1.9-1-2.4-1.9s-0.8-1.7-0.8-2.5h3.9c0,0.7,0.3,1.4,0.8,1.7s1.2,0.5,2,0.5
		s1.4-0.2,1.9-0.5C267.9,47.4,268.1,46.9,268.1,46.6z"/>
	<path class="st1" d="M279.6,31.5v3.7h2.7v3.1h-2.7v7.6c0,0.5,0.2,1,0.3,1.2c0.2,0.2,0.7,0.3,1.2,0.3s0.8,0,1.2-0.2v3.1
		c-0.8,0.2-1.7,0.3-2.5,0.3c-2.9,0-4.4-1.5-4.4-4.4v-8.3h-2.2v-3.1h2.2v-3.7h4.2V31.5z"/>
	<path class="st1" d="M291.6,51c-2.2,0-4.1-0.7-5.6-2c-1.5-1.4-2.2-3.2-2.2-5.6V43c0-1.5,0.3-2.9,0.8-4.1c0.5-1.2,1.5-2.2,2.5-2.9
		c1-0.7,2.4-1,3.7-1c2,0,3.7,0.7,4.9,2c1.2,1.4,1.9,3.2,1.9,5.6v1.7h-9.8c0.2,1,0.5,1.9,1.2,2.4c0.7,0.7,1.5,0.8,2.5,0.8
		c1.5,0,2.9-0.5,3.7-1.7l2,2.2c-0.7,0.8-1.5,1.5-2.5,2C294.2,50.8,293,51,291.6,51z M291.1,38.5c-0.8,0-1.5,0.3-2,0.8
		s-0.8,1.4-1,2.4h5.8v-0.3c0-0.8-0.3-1.7-0.7-2.2C292.7,38.6,292,38.5,291.1,38.5z"/>
	<path class="st1" d="M304.2,35.4l0.2,1.7c1-1.4,2.5-2,4.4-2c2,0,3.4,0.8,4.1,2.4c1-1.5,2.5-2.4,4.6-2.4c1.7,0,2.9,0.5,3.7,1.5
		c0.8,1,1.2,2.4,1.2,4.4v9.8h-4.1V41c0-0.8-0.2-1.5-0.5-1.9c-0.3-0.3-1-0.7-1.9-0.7c-1.2,0-2,0.5-2.5,1.7v10.5h-4.1v-9.8
		c0-0.8-0.2-1.5-0.5-1.9c-0.3-0.3-1-0.7-1.9-0.7c-1.2,0-2,0.5-2.5,1.5v10.8h-4.1V35.2h3.9V35.4z"/>
</g>
</svg>
